<svg xmlns="http://www.w3.org/2000/svg" viewBox="0 0 24 24" aria-hidden="true">
  <mask id="gear-hole-mask">
    <rect width="24" height="24" fill="white" />
    <circle cx="12" cy="12" r="4" fill="black" />
  </mask>
  <g fill="currentColor" mask="url(#gear-hole-mask)">
    <circle cx="12" cy="12" r="9" />
    <rect x="10" y="0.5" width="4" height="4.5" rx="2" transform="rotate(0 12 12)" />
    <rect x="10" y="0.5" width="4" height="4.5" rx="2" transform="rotate(45 12 12)" />
    <rect x="10" y="0.5" width="4" height="4.5" rx="2" transform="rotate(90 12 12)" />
    <rect x="10" y="0.5" width="4" height="4.5" rx="2" transform="rotate(135 12 12)" />
    <rect x="10" y="0.5" width="4" height="4.5" rx="2" transform="rotate(180 12 12)" />
    <rect x="10" y="0.5" width="4" height="4.5" rx="2" transform="rotate(225 12 12)" />
    <rect x="10" y="0.5" width="4" height="4.5" rx="2" transform="rotate(270 12 12)" />
    <rect x="10" y="0.5" width="4" height="4.5" rx="2" transform="rotate(315 12 12)" />
  </g>
</svg>
